{
  "accessors": [
    {
      "bufferView": 2,
      "componentType": 5126,
      "count": 2185,
      "max": [
        2.9196999073028564,
        37.74610137939453,
        10.911100387573242
      ],
      "min": [
        0.0,
        0.0,
        0.07969999313354492
      ],
      "type": "VEC3"
    },
    {
      "bufferView": 2,
      "byteOffset": 26220,
      "componentType": 5126,
      "count": 2185,
      "max": [
        1.0,
        1.0,
        1.0
      ],
      "min": [
        -1.0,
        -1.0,
        -1.0
      ],
      "type": "VEC3"
    },
    {
      "bufferView": 1,
      "componentType": 5126,
      "count": 2185,
      "max": [
        2.0099000930786133,
        1.0041999816894531
      ],
      "min": [
        -0.11710000038146973,
        -2.410099983215332
      ],
      "type": "VEC2"
    },
    {
      "bufferView": 0,
      "componentType": 5125,
      "count": 5715,
      "type": "SCALAR"
    },
    {
      "bufferView": 2,
      "byteOffset": 52440,
      "componentType": 5126,
      "count": 4713,
      "max": [
        2.9879000186920166,
        29.702600479125977,
        10.86050033569336
      ],
      "min": [
        0.0,
        0.9932994842529297,
        0.0
      ],
      "type": "VEC3"
    },
    {
      "bufferView": 2,
      "byteOffset": 108996,
      "componentType": 5126,
      "count": 4713,
      "max": [
        1.0,
        1.0,
        1.0
      ],
      "min": [
        -1.0,
        -1.0,
        -1.0
      ],
      "type": "VEC3"
    },
    {
      "bufferView": 1,
      "byteOffset": 17480,
      "componentType": 5126,
      "count": 4713,
      "max": [
        1.9888999462127686,
        0.9994000196456909
      ],
      "min": [
        -0.040699999779462814,
        0.0
      ],
      "type": "VEC2"
    },
    {
      "bufferView": 0,
      "byteOffset": 22860,
      "componentType": 5125,
      "count": 16548,
      "type": "SCALAR"
    },
    {
      "bufferView": 2,
      "byteOffset": 165552,
      "componentType": 5126,
      "count": 1179,
      "max": [
        2.9196999073028564,
        29.72879981994629,
        10.911100387573242
      ],
      "min": [
        1.0520000457763672,
        1.1123008728027344,
        1.6821999549865723
      ],
      "type": "VEC3"
    },
    {
      "bufferView": 2,
      "byteOffset": 179700,
      "componentType": 5126,
      "count": 1179,
      "max": [
        1.0,
        0.9999918937683105,
        1.0
      ],
      "min": [
        -1.0,
        -1.0,
        -1.0
      ],
      "type": "VEC3"
    },
    {
      "bufferView": 1,
      "byteOffset": 55184,
      "componentType": 5126,
      "count": 1179,
      "max": [
        1.9888999462127686,
        0.9897000193595886
      ],
      "min": [
        0.00139999995008111,
        -2.160099983215332
      ],
      "type": "VEC2"
    },
    {
      "bufferView": 0,
      "byteOffset": 89052,
      "componentType": 5125,
      "count": 3387,
      "type": "SCALAR"
    },
    {
      "bufferView": 2,
      "byteOffset": 193848,
      "componentType": 5126,
      "count": 4123,
      "max": [
        2.9879000186920166,
        37.74610137939453,
        10.911100387573242
      ],
      "min": [
        0.07229995727539063,
        0.9932994842529297,
        0.13390016555786133
      ],
      "type": "VEC3"
    },
    {
      "bufferView": 2,
      "byteOffset": 243324,
      "componentType": 5126,
      "count": 4123,
      "max": [
        1.0,
        1.0,
        1.0
      ],
      "min": [
        -1.0,
        -1.0,
        -1.0
      ],
      "type": "VEC3"
    },
    {
      "bufferView": 1,
      "byteOffset": 64616,
      "componentType": 5126,
      "count": 4123,
      "max": [
        1.992900013923645,
        1.0
      ],
      "min": [
        0.00039999998989515007,
        -0.03460000082850456
      ],
      "type": "VEC2"
    },
    {
      "bufferView": 0,
      "byteOffset": 102600,
      "componentType": 5125,
      "count": 13557,
      "type": "SCALAR"
    }
  ],
  "asset": {
    "extras": {
      "author": "Kircata (https://sketchfab.com/kircata)",
      "license": "CC-BY-4.0 (http://creativecommons.org/licenses/by/4.0/)",
      "source": "https://sketchfab.com/3d-models/csgo-ak-47-unnamed-85ec5804d5604dd4b6c7756565cae07d",
      "title": "CS:GO  Ak-47 | *Unnamed*"
    },
    "generator": "Sketchfab-12.65.0",
    "version": "2.0"
  },
  "bufferViews": [
    {
      "buffer": 0,
      "byteLength": 156828,
      "name": "floatBufferViews",
      "target": 34963
    },
    {
      "buffer": 0,
      "byteLength": 97600,
      "byteOffset": 156828,
      "byteStride": 8,
      "name": "floatBufferViews",
      "target": 34962
    },
    {
      "buffer": 0,
      "byteLength": 292800,
      "byteOffset": 254428,
      "byteStride": 12,
      "name": "floatBufferViews",
      "target": 34962
    }
  ],
  "buffers": [
    {
      "byteLength": 547228,
      "uri": "scene.bin"
    }
  ],
  "images": [
    {
      "uri": "textures/material_0_baseColor.png"
    },
    {
      "uri": "textures/material_0_metallicRoughness.png"
    }
  ],
  "materials": [
    {
      "doubleSided": true,
      "name": "material_0",
      "pbrMetallicRoughness": {
        "baseColorTexture": {
          "index": 0
        },
        "metallicRoughnessTexture": {
          "index": 1
        }
      }
    }
  ],
  "meshes": [
    {
      "name": "Object_0",
      "primitives": [
        {
          "attributes": {
            "NORMAL": 1,
            "POSITION": 0,
            "TEXCOORD_0": 2
          },
          "indices": 3,
          "material": 0,
          "mode": 4
        }
      ]
    },
    {
      "name": "Object_1",
      "primitives": [
        {
          "attributes": {
            "NORMAL": 5,
            "POSITION": 4,
            "TEXCOORD_0": 6
          },
          "indices": 7,
          "material": 0,
          "mode": 4
        }
      ]
    },
    {
      "name": "Object_2",
      "primitives": [
        {
          "attributes": {
            "NORMAL": 9,
            "POSITION": 8,
            "TEXCOORD_0": 10
          },
          "indices": 11,
          "material": 0,
          "mode": 4
        }
      ]
    },
    {
      "name": "Object_3",
      "primitives": [
        {
          "attributes": {
            "NORMAL": 13,
            "POSITION": 12,
            "TEXCOORD_0": 14
          },
          "indices": 15,
          "material": 0,
          "mode": 4
        }
      ]
    }
  ],
  "nodes": [
    {
      "children": [
        1
      ],
      "matrix": [
        1.0,
        0.0,
        0.0,
        0.0,
        0.0,
        0.013405574485659821,
        -0.9999101161956787,
        0.0,
        0.0,
        0.9999101161956787,
        0.013405574485659821,
        0.0,
        0.0,
        0.09668310731649399,
        0.013888683170080206,
        1.0
      ],
      "name": "Sketchfab_model"
    },
    {
      "children": [
        2
      ],
      "matrix": [
        1.0,
        0.0,
        0.0,
        0.0,
        0.0,
        1.0,
        0.0,
        0.0,
        0.0,
        0.0,
        1.0,
        0.0,
        -1.9875999689102173,
        -26.098600387573242,
        -6.483099937438965,
        1.0
      ],
      "name": "ak-47.obj.cleaner.gles"
    },
    {
      "children": [
        3,
        4,
        5,
        6
      ],
      "name": "Object_2"
    },
    {
      "mesh": 0,
      "name": "Object_3"
    },
    {
      "mesh": 1,
      "name": "Object_4"
    },
    {
      "mesh": 2,
      "name": "Object_5"
    },
    {
      "mesh": 3,
      "name": "Object_6"
    }
  ],
  "samplers": [
    {
      "magFilter": 9729,
      "minFilter": 9987,
      "wrapS": 10497,
      "wrapT": 10497
    }
  ],
  "scene": 0,
  "scenes": [
    {
      "name": "Sketchfab_Scene",
      "nodes": [
        0
      ]
    }
  ],
  "textures": [
    {
      "sampler": 0,
      "source": 0
    },
    {
      "sampler": 0,
      "source": 1
    }
  ]
}
